<svg id="visual" viewBox="0 0 900 600" width="900" height="600" xmlns="http://www.w3.org/2000/svg" xmlns:xlink="http://www.w3.org/1999/xlink" version="1.1"><g stroke-width="1" stroke-linejoin="bevel"><path d="M511 345L596.5 368L649 291Z" fill="#053c75" stroke="#053c75"></path><path d="M649 291L625 206L511 345Z" fill="#015496" stroke="#015496"></path><path d="M619.5 433L628.5 405L596.5 368Z" fill="#05376f" stroke="#05376f"></path><path d="M596.5 368L661 409L649 291Z" fill="#03295c" stroke="#03295c"></path><path d="M628.5 405L661 409L596.5 368Z" fill="#042e62" stroke="#042e62"></path><path d="M511 345L619.5 433L596.5 368Z" fill="#034f8f" stroke="#034f8f"></path><path d="M628.5 405L619.5 433L661 409Z" fill="#043368" stroke="#043368"></path><path d="M625 206L482 156L511 345Z" fill="#015496" stroke="#015496"></path><path d="M589.5 139L482 156L625 206Z" fill="#044a89" stroke="#044a89"></path><path d="M589.5 139L519.5 105L482 156Z" fill="#053c75" stroke="#053c75"></path><path d="M625 206L690 136L589.5 139Z" fill="#042e62" stroke="#042e62"></path><path d="M589.5 139L604.5 0L519.5 105Z" fill="#053c75" stroke="#053c75"></path><path d="M649 291L690 136L625 206Z" fill="#054582" stroke="#054582"></path><path d="M784.5 113L690 136L813.5 141Z" fill="#022556" stroke="#022556"></path><path d="M342.5 250L428 458L511 345Z" fill="#05376f" stroke="#05376f"></path><path d="M511 345L428 458L619.5 433Z" fill="#03295c" stroke="#03295c"></path><path d="M776.5 470L781.5 377L661 409Z" fill="#015496" stroke="#015496"></path><path d="M661 409L781.5 377L649 291Z" fill="#042e62" stroke="#042e62"></path><path d="M432 84L342.5 250L482 156Z" fill="#053c75" stroke="#053c75"></path><path d="M482 156L342.5 250L511 345Z" fill="#054582" stroke="#054582"></path><path d="M483 0L432 84L519.5 105Z" fill="#053c75" stroke="#053c75"></path><path d="M519.5 105L432 84L482 156Z" fill="#034f8f" stroke="#034f8f"></path><path d="M428 458L465 528L619.5 433Z" fill="#03295c" stroke="#03295c"></path><path d="M692 558L776.5 470L661 409Z" fill="#015496" stroke="#015496"></path><path d="M283.5 68L313.5 265L342.5 250Z" fill="#042e62" stroke="#042e62"></path><path d="M342.5 250L370.5 462L428 458Z" fill="#034f8f" stroke="#034f8f"></path><path d="M428 458L370.5 462L465 528Z" fill="#022556" stroke="#022556"></path><path d="M313.5 265L370.5 462L342.5 250Z" fill="#03295c" stroke="#03295c"></path><path d="M692 558L661 409L619.5 433Z" fill="#053c75" stroke="#053c75"></path><path d="M813.5 141L690 136L649 291Z" fill="#044a89" stroke="#044a89"></path><path d="M690 136L604.5 0L589.5 139Z" fill="#044a89" stroke="#044a89"></path><path d="M858.5 289L813.5 141L649 291Z" fill="#015496" stroke="#015496"></path><path d="M858.5 289L649 291L781.5 377Z" fill="#054582" stroke="#054582"></path><path d="M900 352L858.5 289L781.5 377Z" fill="#043368" stroke="#043368"></path><path d="M631 600L692 558L619.5 433Z" fill="#034f8f" stroke="#034f8f"></path><path d="M744 0L604.5 0L690 136Z" fill="#044a89" stroke="#044a89"></path><path d="M604.5 0L483 0L519.5 105Z" fill="#015496" stroke="#015496"></path><path d="M171.5 221L233 340L313.5 265Z" fill="#042e62" stroke="#042e62"></path><path d="M504.5 600L631 600L619.5 433Z" fill="#043368" stroke="#043368"></path><path d="M313.5 265L265.5 363L370.5 462Z" fill="#022556" stroke="#022556"></path><path d="M469 600L504.5 600L465 528Z" fill="#015496" stroke="#015496"></path><path d="M465 528L504.5 600L619.5 433Z" fill="#034f8f" stroke="#034f8f"></path><path d="M469 600L465 528L307.5 600Z" fill="#03295c" stroke="#03295c"></path><path d="M307.5 600L465 528L370.5 462Z" fill="#05376f" stroke="#05376f"></path><path d="M900 352L900 262L858.5 289Z" fill="#044a89" stroke="#044a89"></path><path d="M858.5 289L900 210L813.5 141Z" fill="#034f8f" stroke="#034f8f"></path><path d="M900 518L900 352L776.5 470Z" fill="#042e62" stroke="#042e62"></path><path d="M776.5 470L900 352L781.5 377Z" fill="#042e62" stroke="#042e62"></path><path d="M900 262L900 210L858.5 289Z" fill="#015496" stroke="#015496"></path><path d="M813.5 0L744 0L784.5 113Z" fill="#022556" stroke="#022556"></path><path d="M313.5 265L233 340L265.5 363Z" fill="#022556" stroke="#022556"></path><path d="M265.5 363L202 434L370.5 462Z" fill="#034f8f" stroke="#034f8f"></path><path d="M283.5 68L342.5 250L432 84Z" fill="#015496" stroke="#015496"></path><path d="M784.5 113L744 0L690 136Z" fill="#015496" stroke="#015496"></path><path d="M813.5 0L784.5 113L813.5 141Z" fill="#05376f" stroke="#05376f"></path><path d="M900 210L900 147L813.5 141Z" fill="#05376f" stroke="#05376f"></path><path d="M291 0L283.5 68L432 84Z" fill="#054582" stroke="#054582"></path><path d="M900 0L813.5 0L813.5 141Z" fill="#022556" stroke="#022556"></path><path d="M85.5 359L202 434L233 340Z" fill="#054582" stroke="#054582"></path><path d="M233 340L202 434L265.5 363Z" fill="#043368" stroke="#043368"></path><path d="M845.5 600L900 518L776.5 470Z" fill="#043368" stroke="#043368"></path><path d="M845.5 600L776.5 470L692 558Z" fill="#05376f" stroke="#05376f"></path><path d="M202 434L307.5 600L370.5 462Z" fill="#054582" stroke="#054582"></path><path d="M483 0L291 0L432 84Z" fill="#03295c" stroke="#03295c"></path><path d="M283.5 68L171.5 221L313.5 265Z" fill="#015496" stroke="#015496"></path><path d="M156 184L171.5 221L283.5 68Z" fill="#05417b" stroke="#05417b"></path><path d="M291 0L289.5 0L283.5 68Z" fill="#042e62" stroke="#042e62"></path><path d="M631 600L845.5 600L692 558Z" fill="#05376f" stroke="#05376f"></path><path d="M170 105L156 184L283.5 68Z" fill="#015496" stroke="#015496"></path><path d="M171.5 221L119.5 261L233 340Z" fill="#043368" stroke="#043368"></path><path d="M900 147L900 0L813.5 141Z" fill="#034f8f" stroke="#034f8f"></path><path d="M164.5 46L170 105L283.5 68Z" fill="#03295c" stroke="#03295c"></path><path d="M845.5 600L900 600L900 518Z" fill="#053c75" stroke="#053c75"></path><path d="M0 268L119.5 261L0 257Z" fill="#03295c" stroke="#03295c"></path><path d="M156 184L119.5 261L171.5 221Z" fill="#05376f" stroke="#05376f"></path><path d="M155 559L222 600L202 434Z" fill="#05376f" stroke="#05376f"></path><path d="M202 434L222 600L307.5 600Z" fill="#034f8f" stroke="#034f8f"></path><path d="M0 257L119.5 261L156 184Z" fill="#05376f" stroke="#05376f"></path><path d="M289.5 0L164.5 46L283.5 68Z" fill="#015496" stroke="#015496"></path><path d="M119.5 261L85.5 359L233 340Z" fill="#05376f" stroke="#05376f"></path><path d="M0 268L85.5 359L119.5 261Z" fill="#043368" stroke="#043368"></path><path d="M85.5 359L109.5 466L202 434Z" fill="#05376f" stroke="#05376f"></path><path d="M109.5 466L155 559L202 434Z" fill="#053c75" stroke="#053c75"></path><path d="M289.5 0L165.5 0L164.5 46Z" fill="#015496" stroke="#015496"></path><path d="M0 257L156 184L0 45Z" fill="#054582" stroke="#054582"></path><path d="M156 184L170 105L0 45Z" fill="#03295c" stroke="#03295c"></path><path d="M85.5 359L0 428L109.5 466Z" fill="#044a89" stroke="#044a89"></path><path d="M109.5 466L78.5 600L155 559Z" fill="#043368" stroke="#043368"></path><path d="M0 45L170 105L164.5 46Z" fill="#043368" stroke="#043368"></path><path d="M0 449L78.5 600L109.5 466Z" fill="#03295c" stroke="#03295c"></path><path d="M155 559L78.5 600L222 600Z" fill="#043368" stroke="#043368"></path><path d="M0 268L0 428L85.5 359Z" fill="#015496" stroke="#015496"></path><path d="M0 428L0 449L109.5 466Z" fill="#042e62" stroke="#042e62"></path><path d="M0 0L0 45L164.5 46Z" fill="#05376f" stroke="#05376f"></path><path d="M165.5 0L0 0L164.5 46Z" fill="#03295c" stroke="#03295c"></path><path d="M0 449L0 600L78.5 600Z" fill="#044a89" stroke="#044a89"></path></g></svg>